{
  "accessors": [
    {
      "bufferView": 2,
      "componentType": 5126,
      "count": 272,
      "max": [0.4232603907585144, 0.4232603907585144, 0.5262168049812317],
      "min": [-0.4232603907585144, -0.4232603907585144, -0.46316850185394287],
      "type": "VEC3"
    },
    {
      "bufferView": 2,
      "byteOffset": 3264,
      "componentType": 5126,
      "count": 272,
      "max": [1.0, 1.0, 1.0],
      "min": [-1.0, -1.0, -0.9687455296516418],
      "type": "VEC3"
    },
    {
      "bufferView": 1,
      "componentType": 5126,
      "count": 272,
      "max": [0.9373947381973267, 0.9893646240234375],
      "min": [0.010004812851548195, 0.6508351564407349],
      "type": "VEC2"
    },
    {
      "bufferView": 0,
      "componentType": 5125,
      "count": 1200,
      "type": "SCALAR"
    },
    {
      "bufferView": 2,
      "byteOffset": 6528,
      "componentType": 5126,
      "count": 188,
      "max": [0.6405277252197266, 0.3310350477695465, 0.5507579445838928],
      "min": [-0.6405277252197266, -0.3310350477695465, -0.5507579445838928],
      "type": "VEC3"
    },
    {
      "bufferView": 2,
      "byteOffset": 8784,
      "componentType": 5126,
      "count": 188,
      "max": [0.9735739231109619, 0.9606707692146301, 0.9593579769134521],
      "min": [-0.9735739231109619, -0.9606707692146301, -0.949630856513977],
      "type": "VEC3"
    },
    {
      "bufferView": 1,
      "byteOffset": 2176,
      "componentType": 5126,
      "count": 188,
      "max": [0.8394735455513, 0.9564815759658813],
      "min": [0.06878084689378738, 0.006972290575504303],
      "type": "VEC2"
    },
    {
      "bufferView": 0,
      "byteOffset": 4800,
      "componentType": 5125,
      "count": 900,
      "type": "SCALAR"
    },
    {
      "bufferView": 2,
      "byteOffset": 11040,
      "componentType": 5126,
      "count": 90,
      "max": [0.5978295207023621, 0.33379822969436646, 0.09483848512172699],
      "min": [-0.5978295207023621, -0.33379822969436646, -0.09483848512172699],
      "type": "VEC3"
    },
    {
      "bufferView": 2,
      "byteOffset": 12120,
      "componentType": 5126,
      "count": 90,
      "max": [1.0, 1.0, 1.0],
      "min": [-1.0, -1.0, -1.0],
      "type": "VEC3"
    },
    {
      "bufferView": 1,
      "byteOffset": 3680,
      "componentType": 5126,
      "count": 90,
      "max": [0.8509860634803772, 0.7392807006835938],
      "min": [0.07873298972845078, 0.05636393651366234],
      "type": "VEC2"
    },
    {
      "bufferView": 1,
      "byteOffset": 4400,
      "componentType": 5126,
      "count": 90,
      "max": [0.0, 0.0],
      "min": [0.0, 0.0],
      "type": "VEC2"
    },
    {
      "bufferView": 0,
      "byteOffset": 8400,
      "componentType": 5125,
      "count": 156,
      "type": "SCALAR"
    },
    {
      "bufferView": 2,
      "byteOffset": 13200,
      "componentType": 5126,
      "count": 68,
      "max": [0.04627879709005356, 0.29896780848503113, 0.29896780848503113],
      "min": [
        -0.040095698088407516, -0.29896780848503113, -0.29896780848503113
      ],
      "type": "VEC3"
    },
    {
      "bufferView": 2,
      "byteOffset": 14016,
      "componentType": 5126,
      "count": 68,
      "max": [1.0, 1.0, 1.0],
      "min": [-1.0, -1.0, -1.0],
      "type": "VEC3"
    },
    {
      "bufferView": 1,
      "byteOffset": 5120,
      "componentType": 5126,
      "count": 68,
      "max": [0.9608634114265442, 0.983686625957489],
      "min": [0.49653154611587524, 0.3914167881011963],
      "type": "VEC2"
    },
    {
      "bufferView": 0,
      "byteOffset": 9024,
      "componentType": 5125,
      "count": 192,
      "type": "SCALAR"
    },
    {
      "bufferView": 2,
      "byteOffset": 14832,
      "componentType": 5126,
      "count": 372,
      "max": [0.2893883287906647, 0.29896780848503113, 0.2989678382873535],
      "min": [-0.9003191590309143, -0.3756440281867981, -0.9853514432907104],
      "type": "VEC3"
    },
    {
      "bufferView": 2,
      "byteOffset": 19296,
      "componentType": 5126,
      "count": 372,
      "max": [1.0, 1.0, 1.0],
      "min": [-1.0, -1.0, -1.0],
      "type": "VEC3"
    },
    {
      "bufferView": 1,
      "byteOffset": 5664,
      "componentType": 5126,
      "count": 372,
      "max": [0.7115031480789185, 0.9363413453102112],
      "min": [0.17616966366767883, 0.007413536310195923],
      "type": "VEC2"
    },
    {
      "bufferView": 0,
      "byteOffset": 9792,
      "componentType": 5125,
      "count": 1152,
      "type": "SCALAR"
    },
    {
      "bufferView": 2,
      "byteOffset": 23760,
      "componentType": 5126,
      "count": 1626,
      "max": [0.5064576268196106, 0.22615520656108856, 0.15648610889911652],
      "min": [-1.7647099494934082, -0.7187427878379822, -0.9787039756774902],
      "type": "VEC3"
    },
    {
      "bufferView": 2,
      "byteOffset": 43272,
      "componentType": 5126,
      "count": 1626,
      "max": [0.9966549277305603, 0.9999716281890869, 0.9938563108444214],
      "min": [-0.9966549277305603, -0.9999837279319763, -0.9989572167396545],
      "type": "VEC3"
    },
    {
      "bufferView": 1,
      "byteOffset": 8640,
      "componentType": 5126,
      "count": 1626,
      "max": [0.9806522130966187, 0.9506629705429077],
      "min": [0.25240981578826904, 0.003106180112808943],
      "type": "VEC2"
    },
    {
      "bufferView": 0,
      "byteOffset": 14400,
      "componentType": 5125,
      "count": 7824,
      "type": "SCALAR"
    },
    {
      "bufferView": 2,
      "byteOffset": 62784,
      "componentType": 5126,
      "count": 216,
      "max": [0.1338953971862793, 0.12917688488960266, 0.5888208746910095],
      "min": [-0.13237833976745605, -0.1370968222618103, -1.966860055923462],
      "type": "VEC3"
    },
    {
      "bufferView": 2,
      "byteOffset": 65376,
      "componentType": 5126,
      "count": 216,
      "max": [0.9999964237213135, 0.999946653842926, 1.0],
      "min": [-0.9999964237213135, -0.999946653842926, -0.9999540448188782],
      "type": "VEC3"
    },
    {
      "bufferView": 1,
      "byteOffset": 21648,
      "componentType": 5126,
      "count": 216,
      "max": [0.9709460139274597, 0.9936516880989075],
      "min": [0.38965100049972534, 0.2994779348373413],
      "type": "VEC2"
    },
    {
      "bufferView": 0,
      "byteOffset": 45696,
      "componentType": 5125,
      "count": 324,
      "type": "SCALAR"
    },
    {
      "bufferView": 2,
      "byteOffset": 67968,
      "componentType": 5126,
      "count": 216,
      "max": [0.1338953971862793, 0.12917688488960266, 0.5888208746910095],
      "min": [-0.13237833976745605, -0.1370968222618103, -1.966860055923462],
      "type": "VEC3"
    },
    {
      "bufferView": 2,
      "byteOffset": 70560,
      "componentType": 5126,
      "count": 216,
      "max": [0.9999964237213135, 0.999946653842926, 1.0],
      "min": [-0.9999964237213135, -0.999946653842926, -0.9999540448188782],
      "type": "VEC3"
    },
    {
      "bufferView": 1,
      "byteOffset": 23376,
      "componentType": 5126,
      "count": 216,
      "max": [0.9093052744865417, 0.9940391778945923],
      "min": [0.38972827792167664, 0.2543577253818512],
      "type": "VEC2"
    },
    {
      "bufferView": 0,
      "byteOffset": 46992,
      "componentType": 5125,
      "count": 324,
      "type": "SCALAR"
    }
  ],
  "asset": {
    "extras": {
      "author": "Ollendorf (https://sketchfab.com/OllendorfDev)",
      "license": "CC-BY-4.0 (http://creativecommons.org/licenses/by/4.0/)",
      "source": "https://sketchfab.com/3d-models/lego-dead-pool-c63bbc6f7c574e3899a50b0dd8a2c46d",
      "title": "Lego Dead Pool"
    },
    "generator": "Sketchfab-12.65.0",
    "version": "2.0"
  },
  "bufferViews": [
    {
      "buffer": 0,
      "byteLength": 48288,
      "name": "floatBufferViews",
      "target": 34963
    },
    {
      "buffer": 0,
      "byteLength": 25104,
      "byteOffset": 48288,
      "byteStride": 8,
      "name": "floatBufferViews",
      "target": 34962
    },
    {
      "buffer": 0,
      "byteLength": 73152,
      "byteOffset": 73392,
      "byteStride": 12,
      "name": "floatBufferViews",
      "target": 34962
    }
  ],
  "buffers": [
    {
      "byteLength": 146544,
      "uri": "scene.bin"
    }
  ],
  "images": [
    {
      "uri": "textures/Checker_baseColor.jpeg"
    },
    {
      "uri": "textures/Checker.001_baseColor.jpeg"
    }
  ],
  "materials": [
    {
      "doubleSided": true,
      "name": "Checker",
      "pbrMetallicRoughness": {
        "baseColorTexture": {
          "index": 0
        },
        "metallicFactor": 0.0,
        "roughnessFactor": 0.6
      }
    },
    {
      "doubleSided": true,
      "name": "Checker.001",
      "pbrMetallicRoughness": {
        "baseColorTexture": {
          "index": 1
        },
        "metallicFactor": 0.0,
        "roughnessFactor": 0.6
      }
    }
  ],
  "meshes": [
    {
      "name": "Cabeza_Checker_0",
      "primitives": [
        {
          "attributes": {
            "NORMAL": 1,
            "POSITION": 0,
            "TEXCOORD_0": 2
          },
          "indices": 3,
          "material": 0,
          "mode": 4
        }
      ]
    },
    {
      "name": "Torso_Checker_0",
      "primitives": [
        {
          "attributes": {
            "NORMAL": 5,
            "POSITION": 4,
            "TEXCOORD_0": 6
          },
          "indices": 7,
          "material": 0,
          "mode": 4
        }
      ]
    },
    {
      "name": "Cadera_Checker_0",
      "primitives": [
        {
          "attributes": {
            "NORMAL": 9,
            "POSITION": 8,
            "TEXCOORD_0": 10,
            "TEXCOORD_1": 11
          },
          "indices": 12,
          "material": 0,
          "mode": 4
        }
      ]
    },
    {
      "name": "Caedra_bajo_Checker_0",
      "primitives": [
        {
          "attributes": {
            "NORMAL": 14,
            "POSITION": 13,
            "TEXCOORD_0": 15
          },
          "indices": 16,
          "material": 0,
          "mode": 4
        }
      ]
    },
    {
      "name": "Piernas_Checker_0",
      "primitives": [
        {
          "attributes": {
            "NORMAL": 18,
            "POSITION": 17,
            "TEXCOORD_0": 19
          },
          "indices": 20,
          "material": 0,
          "mode": 4
        }
      ]
    },
    {
      "name": "Manos_Checker_0",
      "primitives": [
        {
          "attributes": {
            "NORMAL": 22,
            "POSITION": 21,
            "TEXCOORD_0": 23
          },
          "indices": 24,
          "material": 0,
          "mode": 4
        }
      ]
    },
    {
      "name": "Espada_Checker_0",
      "primitives": [
        {
          "attributes": {
            "NORMAL": 26,
            "POSITION": 25,
            "TEXCOORD_0": 27
          },
          "indices": 28,
          "material": 0,
          "mode": 4
        }
      ]
    },
    {
      "name": "Exportaciones_Checker.001_0",
      "primitives": [
        {
          "attributes": {
            "NORMAL": 30,
            "POSITION": 29,
            "TEXCOORD_0": 31
          },
          "indices": 32,
          "material": 1,
          "mode": 4
        }
      ]
    }
  ],
  "nodes": [
    {
      "children": [1],
      "matrix": [
        1.0, 0.0, 0.0, 0.0, 0.0, 2.220446049250313e-16, -1.0, 0.0, 0.0, 1.0,
        2.220446049250313e-16, 0.0, 0.0, 0.0, 0.0, 1.0
      ],
      "name": "Sketchfab_model"
    },
    {
      "children": [2],
      "matrix": [
        1.0, 0.0, 0.0, 0.0, 0.0, 0.0, 1.0, 0.0, 0.0, -1.0, 0.0, 0.0, 0.0, 0.0,
        0.0, 1.0
      ],
      "name": "948c9403fa354c6ba811004b30b5f5bf.fbx"
    },
    {
      "children": [3, 5, 7, 9, 11, 13, 15, 17],
      "name": "RootNode"
    },
    {
      "children": [4],
      "matrix": [
        99.99686846950927, 0.614849240679072, -0.4982536531709483, 0.0,
        -0.49013437858983555, -1.3150464928786798, -99.99015162010953, 0.0,
        -0.6213409551817607, 99.98946251047059, -1.3119917242917278, 0.0,
        -0.7166653871536255, 286.159912109375, -1.4061685800552368, 1.0
      ],
      "name": "Cabeza"
    },
    {
      "mesh": 0,
      "name": "Cabeza_Checker_0"
    },
    {
      "children": [6],
      "matrix": [
        93.20467700091237, 0.5730861951864318, -0.4644102512318479, 0.0,
        -0.4568424332020611, -1.2257231196656806, -93.19840875842851, 0.0,
        -0.5791369187976706, 93.19776645595404, -1.2228758435408196, 0.0,
        -0.08706003427505493, 190.1199493408203, -0.07672865688800812, 1.0
      ],
      "name": "Torso"
    },
    {
      "mesh": 1,
      "name": "Torso_Checker_0"
    },
    {
      "children": [8],
      "matrix": [
        99.99686846950927, 0.614849240679072, -0.4982536531709483, 0.0,
        -0.49013437858983555, -1.3150464928786798, -99.99015162010953, 0.0,
        -0.6213409551817607, 99.98946251047059, -1.3119917242917278, 0.0,
        0.317654013633728, 130.2574920654297, 0.7778453826904297, 1.0
      ],
      "name": "Cadera"
    },
    {
      "mesh": 2,
      "name": "Cadera_Checker_0"
    },
    {
      "children": [10],
      "matrix": [
        99.99686846950927, 0.614849240679072, -0.4982536531709483, 0.0,
        -0.49013437858983555, -1.3150464928786798, -99.99015162010953, 0.0,
        -0.6213409551817607, 99.98946251047059, -1.3119917242917278, 0.0,
        0.5143195390701294, 98.60921478271484, 1.1931118965148926, 1.0
      ],
      "name": "Caedra_bajo"
    },
    {
      "mesh": 3,
      "name": "Caedra_bajo_Checker_0"
    },
    {
      "children": [12],
      "matrix": [
        99.99686846950927, 0.614849240679072, -0.4982536531709483, 0.0,
        -0.49013437858983555, -1.3150464928786798, -99.99015162010953, 0.0,
        -0.6213409551817607, 99.98946251047059, -1.3119917242917278, 0.0,
        31.027524948120117, 98.79682922363281, 1.0410740375518799, 1.0
      ],
      "name": "Piernas"
    },
    {
      "mesh": 4,
      "name": "Piernas_Checker_0"
    },
    {
      "children": [14],
      "matrix": [
        99.99686846950927, 0.614849240679072, -0.4982536531709483, 0.0,
        -0.49013437858983555, -1.3150464928786798, -99.99015162010953, 0.0,
        -0.6213409551817607, 99.98946251047059, -1.3119917242917278, 0.0,
        62.641876220703125, 219.74147033691406, -0.7834994196891785, 1.0
      ],
      "name": "Manos"
    },
    {
      "mesh": 5,
      "name": "Manos_Checker_0"
    },
    {
      "children": [16],
      "matrix": [
        87.46623014278717, 76.40775078403152, -1.9230773147871658, 0.0,
        0.3613674690367968, -3.3359293225925715, -116.10734752264335, 0.0,
        -76.43107319748574, 87.42372214655501, -2.749688701774516, 0.0,
        -20.81226348876953, 269.2712707519531, -58.25065231323242, 1.0
      ],
      "name": "Espada"
    },
    {
      "mesh": 6,
      "name": "Espada_Checker_0"
    },
    {
      "children": [18],
      "matrix": [
        86.89852501851982, -77.0527768073855, -1.9230665884281877, 0.0,
        -3.2630029334458106, -0.7821649460985313, -116.10734769811212, 0.0,
        77.00765590539105, 86.91626473803112, -2.7496887059299837, 0.0,
        31.144697189331055, 269.2712707519531, -48.654850006103516, 1.0
      ],
      "name": "Exportaciones"
    },
    {
      "mesh": 7,
      "name": "Exportaciones_Checker.001_0"
    }
  ],
  "samplers": [
    {
      "magFilter": 9729,
      "minFilter": 9987,
      "wrapS": 10497,
      "wrapT": 10497
    }
  ],
  "scene": 0,
  "scenes": [
    {
      "name": "Sketchfab_Scene",
      "nodes": [0]
    }
  ],
  "textures": [
    {
      "sampler": 0,
      "source": 0
    },
    {
      "sampler": 0,
      "source": 1
    }
  ]
}
